<?xml version="1.0" standalone="no"?>
<!DOCTYPE svg PUBLIC "-//W3C//DTD SVG 20010904//EN"
 "http://www.w3.org/TR/2001/REC-SVG-20010904/DTD/svg10.dtd">
<svg version="1.0" xmlns="http://www.w3.org/2000/svg"
 width="1500.000000pt" height="1500.000000pt" viewBox="0 0 1500.000000 1500.000000"
 preserveAspectRatio="xMidYMid meet">

<g transform="translate(0.000000,1500.000000) scale(0.100000,-0.100000)"
fill="#000000" stroke="none">
<path d="M10514 12295 c-4 -9 15 -38 51 -76 69 -75 147 -184 187 -262 l29 -59
-63 45 c-181 129 -380 186 -612 174 -190 -9 -362 -71 -492 -175 -78 -63 -77
-78 6 -107 150 -50 284 -132 383 -233 l59 -59 -134 -5 c-112 -5 -147 -10 -225
-35 -206 -68 -371 -197 -476 -375 -21 -35 -36 -70 -35 -78 3 -13 28 -14 173
-12 181 4 321 -7 475 -39 152 -31 212 -50 206 -65 -3 -8 -34 -54 -68 -104
l-63 -90 -166 0 c-156 0 -168 -1 -200 -23 -70 -47 -69 -34 -69 -600 0 -556 -1
-549 59 -600 29 -24 41 -27 102 -27 38 0 69 -3 69 -7 0 -5 -12 -44 -26 -88
-14 -44 -28 -107 -31 -141 l-6 -62 -49 -23 c-121 -57 -99 -128 57 -184 44 -16
82 -30 84 -32 3 -2 -6 -17 -18 -34 -21 -28 -22 -34 -10 -56 17 -32 108 -104
179 -142 120 -64 288 -103 503 -117 72 -4 107 -10 107 -18 0 -7 -16 -82 -35
-167 -112 -484 -173 -945 -182 -1369 l-6 -265 -107 -135 c-110 -139 -233 -305
-310 -420 -24 -36 -87 -110 -141 -165 -783 -805 -1623 -2097 -2126 -3275 -41
-96 -77 -189 -80 -205 l-5 -31 -71 8 c-104 11 -563 46 -767 58 -96 6 -348 13
-560 17 -442 7 -401 -2 -551 112 -97 74 -183 110 -310 130 -128 21 -324 4
-459 -40 -66 -22 -199 -85 -234 -112 -15 -11 -27 -12 -49 -5 -46 17 -176 5
-225 -21 -105 -54 -182 -167 -182 -268 0 -29 7 -69 15 -89 10 -25 12 -42 5
-60 -6 -14 -7 -51 -3 -82 16 -143 130 -154 475 -47 231 71 293 76 598 46 52
-5 257 -10 455 -10 508 -1 755 -21 1055 -83 80 -16 147 -31 149 -34 2 -2 -788
-4 -1757 -4 l-1762 0 0 2268 c0 1567 -3 2279 -11 2305 -14 52 -71 112 -125
133 -32 12 -62 15 -110 11 -81 -6 -136 -40 -171 -106 l-23 -44 0 -2474 0
-2473 2270 0 2270 0 0 189 c0 142 -3 190 -12 193 -10 4 -10 17 -1 63 7 32 15
60 18 63 8 9 266 -41 619 -119 284 -63 323 -70 357 -60 48 15 85 57 151 178
30 54 152 274 270 488 118 215 420 760 671 1212 252 452 457 827 457 833 0 13
-8 15 148 -24 75 -19 150 -37 166 -41 19 -4 25 -9 18 -14 -25 -15 -521 -1372
-547 -1496 -35 -168 -14 -234 284 -871 247 -527 306 -634 327 -581 3 8 -42
111 -99 228 -102 208 -318 672 -390 835 -78 178 -95 292 -62 417 17 66 204
583 395 1097 112 300 129 354 118 367 -12 15 -10 16 17 9 149 -37 623 -73 639
-48 4 6 -2 55 -13 109 -47 229 -49 396 -10 928 63 857 -54 1287 -363 1331 -27
3 -48 11 -48 18 2 121 24 552 35 676 27 296 93 731 121 797 16 41 34 48 169
68 220 32 488 116 687 216 210 105 431 262 504 358 18 23 83 83 144 132 86 70
109 84 105 67 -34 -159 -75 -380 -70 -388 7 -11 133 -14 159 -4 9 4 20 14 25
23 5 9 24 147 42 306 l32 290 39 58 c51 75 93 166 113 242 19 73 20 232 1 300
-29 110 -98 202 -183 245 -42 22 -61 25 -158 25 -123 0 -199 -19 -312 -81
l-63 -34 0 121 c0 66 -5 139 -10 162 -9 37 -7 51 19 117 29 71 31 75 60 73 52
-5 212 -62 328 -119 119 -57 218 -137 278 -224 29 -42 51 -51 61 -25 4 8 1 52
-6 97 -39 269 -140 486 -287 618 -58 51 -199 130 -234 130 -27 0 -24 9 22 70
83 111 129 243 129 374 0 218 -132 427 -331 525 -90 44 -193 71 -210 54 -7 -7
-3 -35 11 -84 54 -192 31 -425 -60 -611 l-24 -47 -22 89 c-44 175 -164 356
-309 467 -85 66 -263 154 -365 182 -173 47 -454 69 -466 36z m995 -1521 c29
-47 51 -88 48 -90 -2 -2 -102 -3 -221 -2 l-217 3 163 87 c90 47 166 87 169 87
3 1 29 -38 58 -85z m-859 -6 l0 -33 -111 3 c-61 2 -109 6 -106 9 7 6 176 51
200 52 13 1 17 -7 17 -31z m-783 -96 c-10 -10 -17 -29 -17 -42 0 -21 3 -22 38
-16 20 3 48 9 62 12 15 4 0 -10 -37 -36 -121 -80 -212 -212 -249 -360 -12 -48
-15 -93 -12 -175 6 -133 33 -221 95 -314 24 -35 43 -67 43 -70 0 -4 -9 -24
-19 -45 -11 -20 -24 -51 -30 -68 l-11 -30 -71 4 c-65 3 -74 6 -100 36 l-29 32
0 516 0 516 29 29 29 29 148 0 c142 0 147 -1 131 -18z m767 12 c13 -5 16 -25
16 -113 0 -63 4 -111 11 -118 6 -6 9 -28 7 -49 l-3 -39 -29 50 c-86 146 -266
253 -431 256 -43 0 -54 3 -40 9 23 10 445 13 469 4z m-251 -97 c108 -51 193
-136 247 -248 l41 -84 -3 -181 -3 -180 -38 -77 c-66 -134 -188 -237 -322 -272
-133 -34 -292 -3 -394 76 l-24 19 32 -6 c184 -37 370 289 268 471 -83 148
-284 93 -375 -103 -23 -49 -26 -71 -27 -153 0 -107 -5 -108 -49 -7 -93 213
-52 469 101 630 113 118 211 160 368 155 92 -2 106 -5 178 -40z m622 4 c-94
-45 -174 -113 -227 -195 l-38 -59 0 76 0 76 133 69 c96 51 143 70 172 71 39 0
38 0 -40 -38z m635 -29 c33 -56 40 -77 40 -119 0 -29 -4 -55 -10 -58 -5 -3
-10 -2 -10 3 0 5 -27 39 -61 76 -62 67 -113 103 -204 143 l-50 22 127 1 127 0
41 -68z m-321 27 c112 -25 242 -122 311 -229 194 -302 49 -739 -279 -840 -79
-25 -195 -25 -271 -1 l-55 17 46 12 c129 33 219 166 219 324 0 131 -61 208
-169 216 -102 7 -194 -58 -250 -178 -22 -46 -26 -69 -26 -143 l0 -88 -23 28
c-12 15 -36 56 -53 91 l-30 62 3 198 c3 196 3 197 33 257 60 121 211 246 332
274 52 12 159 13 212 0z m497 -394 l-65 -63 -6 41 c-4 23 -16 64 -26 91 -10
28 -15 54 -10 60 5 6 11 28 15 49 6 31 10 36 21 27 20 -17 31 -7 83 74 l47 71
3 -144 3 -143 -65 -63z m625 137 c175 -91 224 -377 105 -610 -39 -76 -40 -72
-24 85 11 110 10 114 -9 128 -12 8 -32 34 -47 58 -73 126 -177 149 -260 57
-54 -60 -69 -103 -70 -200 -1 -76 2 -91 29 -139 39 -71 80 -91 143 -69 l42 16
0 -27 c0 -14 -7 -66 -14 -116 l-13 -90 -84 -79 -84 -80 -6 101 c-5 92 -9 109
-44 180 -27 55 -58 98 -107 147 l-68 68 0 232 0 232 53 31 c116 71 215 101
328 102 65 1 85 -3 130 -27z m-561 -346 l0 -194 -57 23 c-32 12 -66 25 -77 29
-13 5 -17 12 -12 29 4 12 12 60 18 106 11 82 12 85 66 142 30 33 57 59 58 59
2 0 4 -87 4 -194z m480 52 c19 -13 47 -45 63 -73 16 -27 35 -54 43 -60 12 -9
11 -45 -11 -255 -33 -318 -75 -672 -81 -682 -6 -10 -84 -11 -84 -1 0 4 13 72
30 152 34 168 76 441 86 553 6 68 5 78 -10 84 -12 4 -28 -4 -49 -23 -54 -51
-75 -58 -106 -36 -61 45 -75 181 -28 272 22 43 75 91 102 91 7 0 27 -10 45
-22z m-2347 -140 c21 -25 23 -95 4 -141 -18 -41 -91 -107 -119 -107 -36 0 -88
58 -88 97 0 85 101 193 165 176 11 -2 28 -14 38 -25z m1094 -105 c40 -60 -1
-183 -75 -226 -31 -18 -34 -18 -60 -2 -76 49 -86 78 -53 150 43 95 148 139
188 78z m-453 -234 c-22 -24 -61 -31 -164 -27 l-85 3 52 33 c61 39 159 141
188 195 l20 38 3 -112 c2 -93 0 -115 -14 -130z m1164 200 l62 -28 0 -86 c0
-98 -16 -146 -56 -164 -16 -7 -103 -11 -252 -11 l-227 0 55 23 c112 46 231
154 280 254 29 59 32 60 138 12z m-1052 -41 c22 -42 108 -133 162 -170 24 -17
69 -41 100 -54 l57 -23 -153 -1 -154 0 -30 30 c-25 25 -29 36 -23 58 4 15 10
64 12 110 2 45 6 82 8 82 3 0 12 -14 21 -32z m1229 -95 c79 -100 100 -154 100
-258 0 -118 -21 -163 -129 -271 -246 -244 -770 -476 -1176 -520 -87 -9 -118
-26 -140 -77 -30 -70 -93 -487 -124 -817 -13 -130 -35 -567 -36 -687 0 -16
-11 -28 -37 -42 -21 -10 -57 -38 -80 -62 l-43 -43 0 150 c0 391 77 962 201
1483 43 184 54 167 -108 175 -292 15 -490 76 -618 188 l-45 39 21 28 21 28 61
-13 c68 -14 77 -12 77 16 0 13 -9 22 -27 26 -134 30 -294 82 -329 109 -19 13
-19 14 1 29 35 27 133 58 217 70 72 10 83 15 83 32 0 16 -7 19 -50 19 -27 0
-69 -4 -92 -8 -39 -7 -43 -5 -43 14 0 27 37 170 57 220 l15 39 435 0 c265 0
441 4 453 10 14 8 21 4 35 -16 9 -14 30 -34 48 -44 31 -19 54 -20 552 -20 488
0 522 1 555 19 52 27 73 70 78 162 3 44 8 79 13 79 5 0 29 -26 54 -57z m-2111
-91 c-48 -2 -89 -1 -91 2 -3 2 4 25 16 50 l20 46 71 -47 70 -48 -86 -3z
m-6677 -2818 c15 -11 36 -33 47 -48 l21 -27 3 -2285 2 -2284 -170 0 -170 0 0
2278 c1 2173 2 2279 19 2311 10 18 35 44 57 58 33 20 49 23 101 21 43 -3 71
-10 90 -24z m6422 -840 c-136 -220 -347 -640 -372 -739 -24 -96 -22 -119 13
-158 36 -41 97 -69 227 -103 54 -14 103 -27 110 -29 8 -3 -27 -62 -89 -152
-530 -775 -927 -1490 -1175 -2118 -30 -77 -57 -142 -59 -144 -2 -2 -50 8 -106
22 -57 14 -148 33 -203 41 -97 16 -399 56 -416 56 -22 0 228 560 392 878 447
868 973 1654 1551 2320 78 89 143 162 146 162 2 0 -6 -16 -19 -36z m155 -1079
c66 -19 121 -35 123 -35 1 0 3 -5 3 -10 0 -20 -1461 -2645 -1482 -2662 -31
-27 -66 -23 -330 36 -134 30 -324 70 -423 89 -99 19 -193 38 -210 42 -16 3
-45 8 -64 10 -19 3 -100 14 -180 25 -297 41 -438 51 -721 51 -259 0 -368 -8
-665 -52 -339 -50 -457 -56 -663 -36 -297 29 -373 23 -609 -53 -268 -85 -393
-85 -393 1 0 23 3 26 21 22 14 -4 31 5 57 30 51 49 114 79 272 126 209 64 357
91 494 91 116 0 117 0 114 23 -3 21 -8 22 -108 25 -120 4 -207 -8 -372 -49
-241 -60 -345 -101 -425 -166 -24 -19 -43 -32 -43 -29 0 21 68 121 106 156 83
77 247 133 423 145 123 9 133 12 129 38 -3 20 -8 22 -63 19 -80 -4 -260 -31
-292 -43 -46 -17 -35 -3 34 49 189 140 424 212 644 199 161 -10 269 -50 384
-143 129 -104 112 -101 555 -108 915 -13 1947 -118 2199 -222 49 -20 81 -18
81 5 0 11 -9 23 -20 26 -11 3 -20 11 -20 17 0 17 104 275 175 433 226 506 544
1063 967 1696 98 147 178 272 178 278 0 14 -13 16 124 -24z m-5361 -2164 c-32
-27 -104 -94 -161 -150 -109 -105 -120 -109 -109 -32 7 57 34 106 84 156 53
52 106 73 186 74 l58 1 -58 -49z m2592 -364 c146 -18 359 -49 363 -52 2 -1 -2
-22 -7 -46 -5 -24 -12 -56 -16 -71 l-5 -28 -123 0 c-111 0 -142 5 -340 50
-325 75 -513 101 -832 116 -182 9 -173 15 60 39 179 18 724 13 900 -8z m365
-387 l0 -140 -2220 0 -2220 0 0 140 0 140 2220 0 2220 0 0 -140z"/>
</g>
</svg>
